<svg id="visual" viewBox="0 0 1080 100" width="1080" height="100" xmlns="http://www.w3.org/2000/svg" xmlns:xlink="http://www.w3.org/1999/xlink" version="1.1"><path d="M0 45L12.8 45.8C25.7 46.7 51.3 48.3 77 50.8C102.7 53.3 128.3 56.7 154 53C179.7 49.3 205.3 38.7 231.2 35.7C257 32.7 283 37.3 308.8 44.2C334.7 51 360.3 60 386 60.8C411.7 61.7 437.3 54.3 463 52C488.7 49.7 514.3 52.3 540 55.2C565.7 58 591.3 61 617 60.8C642.7 60.7 668.3 57.3 694 57.2C719.7 57 745.3 60 771.2 61C797 62 823 61 848.8 57.7C874.7 54.3 900.3 48.7 926 43.2C951.7 37.7 977.3 32.3 1003 36.2C1028.7 40 1054.3 53 1067.2 59.5L1080 66L1080 0L1067.2 0C1054.3 0 1028.7 0 1003 0C977.3 0 951.7 0 926 0C900.3 0 874.7 0 848.8 0C823 0 797 0 771.2 0C745.3 0 719.7 0 694 0C668.3 0 642.7 0 617 0C591.3 0 565.7 0 540 0C514.3 0 488.7 0 463 0C437.3 0 411.7 0 386 0C360.3 0 334.7 0 308.8 0C283 0 257 0 231.2 0C205.3 0 179.7 0 154 0C128.3 0 102.7 0 77 0C51.3 0 25.7 0 12.8 0L0 0Z" fill="#f5a8a3"></path><path d="M0 30L12.8 30.8C25.7 31.7 51.3 33.3 77 36.7C102.7 40 128.3 45 154 47C179.7 49 205.3 48 231.2 47.5C257 47 283 47 308.8 42.7C334.7 38.3 360.3 29.7 386 26.2C411.7 22.7 437.3 24.3 463 27.7C488.7 31 514.3 36 540 40.5C565.7 45 591.3 49 617 50.8C642.7 52.7 668.3 52.3 694 51.7C719.7 51 745.3 50 771.2 44.2C797 38.3 823 27.7 848.8 27.7C874.7 27.7 900.3 38.3 926 44.5C951.7 50.7 977.3 52.3 1003 49.8C1028.7 47.3 1054.3 40.7 1067.2 37.3L1080 34L1080 0L1067.2 0C1054.3 0 1028.7 0 1003 0C977.3 0 951.7 0 926 0C900.3 0 874.7 0 848.8 0C823 0 797 0 771.2 0C745.3 0 719.7 0 694 0C668.3 0 642.7 0 617 0C591.3 0 565.7 0 540 0C514.3 0 488.7 0 463 0C437.3 0 411.7 0 386 0C360.3 0 334.7 0 308.8 0C283 0 257 0 231.2 0C205.3 0 179.7 0 154 0C128.3 0 102.7 0 77 0C51.3 0 25.7 0 12.8 0L0 0Z" fill="#f67a73"></path><path d="M0 20L12.8 19C25.7 18 51.3 16 77 15.3C102.7 14.7 128.3 15.3 154 14.2C179.7 13 205.3 10 231.2 10.3C257 10.7 283 14.3 308.8 17.5C334.7 20.7 360.3 23.3 386 23.7C411.7 24 437.3 22 463 23.2C488.7 24.3 514.3 28.7 540 28.8C565.7 29 591.3 25 617 25.2C642.7 25.3 668.3 29.7 694 28C719.7 26.3 745.3 18.7 771.2 15.8C797 13 823 15 848.8 14.8C874.7 14.7 900.3 12.3 926 14.5C951.7 16.7 977.3 23.3 1003 24.8C1028.7 26.3 1054.3 22.7 1067.2 20.8L1080 19L1080 0L1067.2 0C1054.3 0 1028.7 0 1003 0C977.3 0 951.7 0 926 0C900.3 0 874.7 0 848.8 0C823 0 797 0 771.2 0C745.3 0 719.7 0 694 0C668.3 0 642.7 0 617 0C591.3 0 565.7 0 540 0C514.3 0 488.7 0 463 0C437.3 0 411.7 0 386 0C360.3 0 334.7 0 308.8 0C283 0 257 0 231.2 0C205.3 0 179.7 0 154 0C128.3 0 102.7 0 77 0C51.3 0 25.7 0 12.8 0L0 0Z" fill="#ef4444"></path></svg>