<svg id="visual" viewBox="0 0 1080 100" width="1080" height="100" xmlns="http://www.w3.org/2000/svg" xmlns:xlink="http://www.w3.org/1999/xlink" version="1.1"><rect x="0" y="0" width="1080" height="100" fill="#fff8f6"></rect><path d="M0 22L15 30C30 38 60 54 90 58.3C120 62.7 150 55.3 180 51.3C210 47.3 240 46.7 270 44.2C300 41.7 330 37.3 360 40.2C390 43 420 53 450 55.7C480 58.3 510 53.7 540 48C570 42.3 600 35.7 630 37C660 38.3 690 47.7 720 51.2C750 54.7 780 52.3 810 48.8C840 45.3 870 40.7 900 37.3C930 34 960 32 990 36.5C1020 41 1050 52 1065 57.5L1080 63L1080 101L1065 101C1050 101 1020 101 990 101C960 101 930 101 900 101C870 101 840 101 810 101C780 101 750 101 720 101C690 101 660 101 630 101C600 101 570 101 540 101C510 101 480 101 450 101C420 101 390 101 360 101C330 101 300 101 270 101C240 101 210 101 180 101C150 101 120 101 90 101C60 101 30 101 15 101L0 101Z" fill="#f5a8a3"></path><path d="M0 57L15 61.2C30 65.3 60 73.7 90 70.7C120 67.7 150 53.3 180 52.7C210 52 240 65 270 72C300 79 330 80 360 76C390 72 420 63 450 58.8C480 54.7 510 55.3 540 53C570 50.7 600 45.3 630 49.5C660 53.7 690 67.3 720 71C750 74.7 780 68.3 810 65.5C840 62.7 870 63.3 900 62.8C930 62.3 960 60.7 990 63C1020 65.3 1050 71.7 1065 74.8L1080 78L1080 101L1065 101C1050 101 1020 101 990 101C960 101 930 101 900 101C870 101 840 101 810 101C780 101 750 101 720 101C690 101 660 101 630 101C600 101 570 101 540 101C510 101 480 101 450 101C420 101 390 101 360 101C330 101 300 101 270 101C240 101 210 101 180 101C150 101 120 101 90 101C60 101 30 101 15 101L0 101Z" fill="#f67a73"></path><path d="M0 64L15 67.8C30 71.7 60 79.3 90 82.5C120 85.7 150 84.3 180 82.2C210 80 240 77 270 75C300 73 330 72 360 71.7C390 71.3 420 71.7 450 75.3C480 79 510 86 540 89.2C570 92.3 600 91.7 630 89.7C660 87.7 690 84.3 720 82C750 79.7 780 78.3 810 75C840 71.7 870 66.3 900 63.7C930 61 960 61 990 65.7C1020 70.3 1050 79.7 1065 84.3L1080 89L1080 101L1065 101C1050 101 1020 101 990 101C960 101 930 101 900 101C870 101 840 101 810 101C780 101 750 101 720 101C690 101 660 101 630 101C600 101 570 101 540 101C510 101 480 101 450 101C420 101 390 101 360 101C330 101 300 101 270 101C240 101 210 101 180 101C150 101 120 101 90 101C60 101 30 101 15 101L0 101Z" fill="#ef4444"></path></svg>