<svg id="visual" viewBox="0 0 1200 540" width="1200" height="540" xmlns="http://www.w3.org/2000/svg" xmlns:xlink="http://www.w3.org/1999/xlink" version="1.1"><path d="M0 413L25 397.8C50 382.7 100 352.3 150 361.3C200 370.3 250 418.7 300 439C350 459.3 400 451.7 450 444.8C500 438 550 432 600 413.5C650 395 700 364 750 360C800 356 850 379 900 406C950 433 1000 464 1050 465.8C1100 467.7 1150 440.3 1175 426.7L1200 413L1200 541L1175 541C1150 541 1100 541 1050 541C1000 541 950 541 900 541C850 541 800 541 750 541C700 541 650 541 600 541C550 541 500 541 450 541C400 541 350 541 300 541C250 541 200 541 150 541C100 541 50 541 25 541L0 541Z" fill="#ff665b" stroke-linecap="round" stroke-linejoin="miter"></path></svg>